M48
; DRILL file {KiCad 6.0.11+dfsg-1~bpo11+1} date Wed 05 Jul 2023 16:16:18 CEST
; FORMAT={-:-/ absolute / metric / decimal}
; #@! TF.CreationDate,2023-07-05T16:16:18+02:00
; #@! TF.GenerationSoftware,Kicad,Pcbnew,6.0.11+dfsg-1~bpo11+1
; #@! TF.FileFunction,Plated,1,2,PTH
FMAT,2
METRIC
; #@! TA.AperFunction,Plated,PTH,ViaDrill
T1C0.400
; #@! TA.AperFunction,Plated,PTH,ViaDrill
T2C0.800
; #@! TA.AperFunction,Plated,PTH,ComponentDrill
T3C1.000
; #@! TA.AperFunction,Plated,PTH,ComponentDrill
T4C1.400
%
G90
G05
T1
X131.09Y-107.28
X131.93Y-111.62
X132.04Y-96.09
X132.1Y-82.87
X136.3Y-108.47
X136.94Y-113.53
X137.47Y-103.02
X138.44Y-95.3
X138.44Y-111.62
X138.54Y-82.88
X139.5Y-101.5
X140.7Y-77.14
X143.0Y-102.0
X143.43Y-110.54
X143.97Y-100.44
X144.99Y-95.36
X145.0Y-111.55
X145.25Y-82.88
X146.16Y-98.17
X146.61Y-101.48
X149.5Y-102.0
X149.57Y-108.24
X150.0Y-88.5
X150.62Y-103.42
X151.58Y-95.38
X151.67Y-82.88
X156.0Y-102.0
X157.18Y-103.11
X157.98Y-95.44
X158.21Y-82.84
X162.5Y-102.0
X163.66Y-103.39
X164.53Y-95.32
X164.98Y-82.84
X170.52Y-94.9
X170.76Y-103.47
X171.49Y-82.85
X172.65Y-101.5
X173.54Y-93.17
X176.57Y-101.67
X176.99Y-84.83
T2
X133.9Y-87.6
X174.09Y-83.84
T3
X142.11Y-114.44
X142.11Y-116.98
X144.65Y-114.44
X144.65Y-116.98
X147.19Y-114.44
X147.19Y-116.98
X149.73Y-114.44
X149.73Y-116.98
X152.27Y-114.44
X152.27Y-116.98
X154.81Y-114.44
X154.81Y-116.98
X157.35Y-114.44
X157.35Y-116.98
X159.89Y-114.44
X159.89Y-116.98
T4
X128.14Y-70.278
X133.22Y-70.278
X138.3Y-70.278
X143.38Y-70.278
X148.46Y-70.278
X153.54Y-70.278
X158.62Y-70.278
X163.7Y-70.278
X168.78Y-70.278
X173.86Y-70.278
T0
M30
