M48
; DRILL file {KiCad 6.0.11+dfsg-1~bpo11+1} date Wed 05 Jul 2023 16:27:25 CEST
; FORMAT={-:-/ absolute / metric / decimal}
; #@! TF.CreationDate,2023-07-05T16:27:25+02:00
; #@! TF.GenerationSoftware,Kicad,Pcbnew,6.0.11+dfsg-1~bpo11+1
; #@! TF.FileFunction,Plated,1,2,PTH
FMAT,2
METRIC
; #@! TA.AperFunction,Plated,PTH,ViaDrill
T1C0.400
; #@! TA.AperFunction,Plated,PTH,ComponentDrill
T2C1.000
%
G90
G05
T1
X118.2Y-80.86
X118.5Y-108.48
X124.39Y-110.05
X127.35Y-94.95
X127.71Y-108.57
X129.7Y-113.43
X136.5Y-102.53
X136.67Y-85.55
X137.7Y-96.65
X139.12Y-94.95
X139.69Y-103.19
X140.04Y-107.72
X143.45Y-86.02
X144.62Y-77.46
X145.388Y-101.518
X146.05Y-86.04
X146.11Y-102.21
X147.03Y-102.94
X147.75Y-94.95
X147.79Y-97.81
X147.86Y-103.67
X148.1Y-77.47
X151.05Y-102.86
X152.22Y-100.57
X152.74Y-102.87
X154.94Y-115.66
X156.97Y-75.93
X156.97Y-79.75
X156.98Y-74.67
X157.06Y-81.17
X159.68Y-102.83
X160.605Y-95.19
X161.32Y-93.8
X162.51Y-80.17
X163.75Y-106.55
X166.28Y-80.18
T2
X119.01Y-84.1
X119.01Y-86.64
X119.01Y-89.18
X119.01Y-91.72
X119.01Y-94.26
X119.01Y-96.8
X119.01Y-99.34
X119.01Y-101.88
X121.55Y-84.1
X121.55Y-86.64
X121.55Y-89.18
X121.55Y-91.72
X121.55Y-94.26
X121.55Y-96.8
X121.55Y-99.34
X121.55Y-101.88
X134.06Y-114.453
X134.06Y-116.992
X134.09Y-68.98
X134.09Y-71.52
X136.6Y-114.453
X136.6Y-116.992
X136.63Y-68.98
X136.63Y-71.52
X138.885Y-84.115
X139.14Y-114.453
X139.14Y-116.992
X139.17Y-68.98
X139.17Y-71.52
X141.425Y-84.115
X141.68Y-114.453
X141.68Y-116.992
X141.71Y-68.98
X141.71Y-71.52
X143.965Y-84.115
X144.22Y-114.453
X144.22Y-116.992
X144.25Y-68.98
X144.25Y-71.52
X146.505Y-84.115
X146.76Y-114.453
X146.76Y-116.992
X146.79Y-68.98
X146.79Y-71.52
X149.045Y-84.115
X149.3Y-114.453
X149.3Y-116.992
X149.33Y-68.98
X149.33Y-71.52
X151.585Y-84.115
X151.84Y-114.453
X151.84Y-116.992
X151.87Y-68.98
X151.87Y-71.52
X157.985Y-91.545
X157.985Y-94.085
X157.985Y-96.625
X157.985Y-99.165
X157.985Y-101.705
X157.985Y-104.245
X159.46Y-68.5
X159.56Y-110.38
X159.56Y-112.92
X159.56Y-115.46
X159.56Y-118.0
X162.0Y-68.5
X162.1Y-110.38
X162.1Y-112.92
X162.1Y-115.46
X162.1Y-118.0
X164.47Y-84.09
X164.47Y-86.63
X164.47Y-89.17
X164.47Y-91.71
X164.47Y-94.25
X164.47Y-96.79
X164.47Y-99.33
X164.47Y-101.87
X167.01Y-84.09
X167.01Y-86.63
X167.01Y-89.17
X167.01Y-91.71
X167.01Y-94.25
X167.01Y-96.79
X167.01Y-99.33
X167.01Y-101.87
T0
M30
