M48
; DRILL file {KiCad 6.0.11+dfsg-1~bpo11+1} date Wed 05 Jul 2023 16:31:19 CEST
; FORMAT={-:-/ absolute / metric / decimal}
; #@! TF.CreationDate,2023-07-05T16:31:19+02:00
; #@! TF.GenerationSoftware,Kicad,Pcbnew,6.0.11+dfsg-1~bpo11+1
; #@! TF.FileFunction,Plated,1,4,PTH
FMAT,2
METRIC
; #@! TA.AperFunction,Plated,PTH,ViaDrill
T1C0.400
; #@! TA.AperFunction,Plated,PTH,ComponentDrill
T2C1.000
%
G90
G05
T1
X119.42Y-76.76
X122.63Y-67.27
X123.05Y-118.71
X123.21Y-111.52
X124.61Y-111.54
X127.43Y-81.1
X128.84Y-82.81
X129.53Y-104.92
X130.14Y-89.04
X130.16Y-91.62
X130.31Y-73.68
X130.565Y-97.275
X131.78Y-84.61
X132.27Y-103.43
X132.57Y-92.95
X132.79Y-110.98
X132.91Y-74.81
X133.26Y-105.94
X133.92Y-78.33
X134.874Y-100.09
X135.21Y-92.96
X135.44Y-84.4
X135.69Y-88.99
X136.04Y-111.03
X136.05Y-104.93
X136.77Y-100.59
X136.91Y-79.28
X140.79Y-89.73
X140.81Y-92.98
X140.96Y-84.28
X142.14Y-103.44
X142.42Y-75.914
X143.05Y-104.57
X143.16Y-84.56
X143.74Y-79.2
X144.98Y-79.23
X145.0Y-84.46
X145.58Y-105.44
X146.26Y-84.47
X146.81Y-104.45
X148.02Y-81.1
X148.08Y-105.48
X148.76Y-112.56
X149.29Y-79.23
X149.32Y-103.32
X149.33Y-84.45
X149.44Y-75.05
X150.55Y-84.44
X150.57Y-79.25
X150.64Y-105.67
X152.23Y-105.33
X152.3Y-104.1
X152.99Y-91.26
X153.17Y-100.63
X154.65Y-96.51
X154.85Y-92.14
X155.18Y-100.72
X156.52Y-97.27
X157.72Y-74.08
X160.43Y-83.35
X161.36Y-78.23
X161.65Y-75.02
X162.34Y-89.52
T2
X119.69Y-84.4
X119.69Y-86.94
X119.69Y-89.48
X119.69Y-92.02
X119.69Y-94.56
X119.69Y-97.1
X119.69Y-99.64
X119.69Y-102.18
X122.23Y-84.4
X122.23Y-86.94
X122.23Y-89.48
X122.23Y-92.02
X122.23Y-94.56
X122.23Y-97.1
X122.23Y-99.64
X122.23Y-102.18
X134.77Y-69.358
X134.77Y-71.897
X134.79Y-114.8
X134.79Y-117.34
X137.31Y-69.358
X137.31Y-71.897
X137.33Y-114.8
X137.33Y-117.34
X139.85Y-69.358
X139.85Y-71.897
X139.87Y-114.8
X139.87Y-117.34
X141.7Y-86.415
X142.39Y-69.358
X142.39Y-71.897
X142.41Y-114.8
X142.41Y-117.34
X144.24Y-86.415
X144.93Y-69.358
X144.93Y-71.897
X144.95Y-114.8
X144.95Y-117.34
X146.78Y-86.415
X147.47Y-69.358
X147.47Y-71.897
X147.49Y-114.8
X147.49Y-117.34
X149.32Y-86.415
X150.01Y-69.358
X150.01Y-71.897
X150.03Y-114.8
X150.03Y-117.34
X151.86Y-86.415
X152.55Y-69.358
X152.55Y-71.897
X152.57Y-114.8
X152.57Y-117.34
X154.4Y-86.415
X160.155Y-68.84
X160.255Y-110.72
X160.255Y-113.26
X160.255Y-115.8
X160.255Y-118.34
X162.695Y-68.84
X162.795Y-110.72
X162.795Y-113.26
X162.795Y-115.8
X162.795Y-118.34
X165.16Y-84.43
X165.16Y-86.97
X165.16Y-89.51
X165.16Y-92.05
X165.16Y-94.59
X165.16Y-97.13
X165.16Y-99.67
X165.16Y-102.21
X167.7Y-84.43
X167.7Y-86.97
X167.7Y-89.51
X167.7Y-92.05
X167.7Y-94.59
X167.7Y-97.13
X167.7Y-99.67
X167.7Y-102.21
T0
M30
