M48
; DRILL file {KiCad 6.0.11+dfsg-1~bpo11+1} date Sat 22 Jul 2023 11:44:38 CEST
; FORMAT={-:-/ absolute / metric / decimal}
; #@! TF.CreationDate,2023-07-22T11:44:38+02:00
; #@! TF.GenerationSoftware,Kicad,Pcbnew,6.0.11+dfsg-1~bpo11+1
; #@! TF.FileFunction,Plated,1,2,PTH
FMAT,2
METRIC
; #@! TA.AperFunction,Plated,PTH,ViaDrill
T1C0.400
; #@! TA.AperFunction,Plated,PTH,ComponentDrill
T2C0.400
; #@! TA.AperFunction,Plated,PTH,ComponentDrill
T3C1.000
; #@! TA.AperFunction,Plated,PTH,ComponentDrill
T4C1.100
; #@! TA.AperFunction,Plated,PTH,ComponentDrill
T5C1.400
%
G90
G05
T1
X116.8Y-82.0
X125.3Y-93.5
X126.9Y-70.2
X134.0Y-91.0
X134.5Y-86.41
X137.7Y-82.0
X138.34Y-87.25
X138.99Y-70.18
X143.1Y-87.7
X143.27Y-80.02
X144.22Y-77.21
X144.8Y-84.5
X147.0Y-76.4
X150.9Y-71.8
X151.4Y-69.0
X153.22Y-73.87
X154.0Y-77.0
X155.49Y-74.01
X155.58Y-77.73
X157.2Y-92.0
X157.82Y-77.82
X159.6Y-85.5
X161.16Y-89.39
X161.96Y-90.09
X161.98Y-91.92
X162.88Y-80.02
X163.51Y-95.93
X166.8Y-74.3
X168.68Y-78.68
X169.35Y-83.08
X170.71Y-84.5
X172.06Y-78.12
X173.9Y-78.0
X174.09Y-95.91
T2
X164.391Y-83.679
X164.391Y-85.204
X165.154Y-82.916
X165.154Y-84.441
X165.154Y-85.966
X165.916Y-83.679
X165.916Y-85.204
X166.679Y-82.916
X166.679Y-84.441
X166.679Y-85.966
X167.441Y-83.679
X167.441Y-85.204
T3
X105.471Y-98.371
X105.471Y-100.911
X108.011Y-98.371
X108.011Y-100.911
X110.551Y-98.371
X110.551Y-100.911
X113.091Y-98.371
X113.091Y-100.911
X115.631Y-98.371
X115.631Y-100.911
X118.171Y-98.371
X118.171Y-100.911
X120.711Y-98.371
X120.711Y-100.911
X123.251Y-98.371
X123.251Y-100.911
X125.791Y-98.371
X125.791Y-100.911
X128.331Y-98.371
X128.331Y-100.911
X130.141Y-68.871
X130.141Y-71.411
X130.871Y-98.371
X130.871Y-100.911
X132.681Y-68.871
X132.681Y-71.411
X133.411Y-98.371
X133.411Y-100.911
X135.221Y-68.871
X135.221Y-71.411
X135.951Y-98.371
X135.951Y-100.911
X137.761Y-68.871
X137.761Y-71.411
X138.491Y-98.371
X138.491Y-100.911
X140.301Y-68.871
X140.301Y-71.411
X141.031Y-98.371
X141.031Y-100.911
X142.841Y-68.871
X142.841Y-71.411
X143.571Y-98.371
X143.571Y-100.911
X145.381Y-68.871
X145.381Y-71.411
X146.111Y-98.371
X146.111Y-100.911
X147.921Y-68.871
X147.921Y-71.411
X148.651Y-98.371
X148.651Y-100.911
X151.191Y-98.371
X151.191Y-100.911
X152.096Y-78.846
X152.096Y-81.386
X152.096Y-83.926
X152.096Y-86.466
X152.096Y-89.006
X152.096Y-91.546
X153.731Y-98.371
X153.731Y-100.911
T4
X114.416Y-85.984
X114.416Y-88.524
X114.416Y-91.064
X118.226Y-85.984
X118.226Y-88.524
X118.226Y-91.064
X123.916Y-85.984
X123.916Y-88.524
X123.916Y-91.064
X127.726Y-85.984
X127.726Y-88.524
X127.726Y-91.064
T5
X104.499Y-77.301
X104.499Y-82.381
X104.499Y-87.461
X104.499Y-92.541
T0
M30
