M48
; DRILL file {KiCad 6.0.11+dfsg-1~bpo11+1} date Wed 05 Jul 2023 16:38:58 CEST
; FORMAT={-:-/ absolute / metric / decimal}
; #@! TF.CreationDate,2023-07-05T16:38:58+02:00
; #@! TF.GenerationSoftware,Kicad,Pcbnew,6.0.11+dfsg-1~bpo11+1
; #@! TF.FileFunction,Plated,1,4,PTH
FMAT,2
METRIC
; #@! TA.AperFunction,Plated,PTH,ViaDrill
T1C0.400
; #@! TA.AperFunction,Plated,PTH,ComponentDrill
T2C0.800
; #@! TA.AperFunction,Plated,PTH,ComponentDrill
T3C1.000
; #@! TA.AperFunction,Plated,PTH,ComponentDrill
T4C1.400
%
G90
G05
T1
X128.88Y-106.78
X129.25Y-111.85
X130.03Y-97.68
X130.958Y-102.958
X130.97Y-101.59
X133.65Y-103.35
X134.45Y-111.0
X135.57Y-102.95
X135.58Y-101.61
X136.45Y-110.95
X141.25Y-110.975
X141.62Y-97.76
X142.495Y-101.598
X142.54Y-106.3
X142.55Y-87.38
X142.62Y-103.3
X144.03Y-90.13
X144.34Y-106.56
X146.96Y-101.59
X147.02Y-103.374
X147.06Y-106.6
X148.17Y-111.05
X148.65Y-95.95
X149.87Y-111.93
X150.225Y-91.125
X150.725Y-111.125
X151.82Y-106.32
X152.5Y-112.925
X153.1Y-96.25
X153.13Y-97.74
X153.43Y-87.38
X153.96Y-103.004
X153.986Y-101.58
X154.97Y-90.13
X156.375Y-111.875
X157.24Y-106.49
X157.62Y-115.69
X157.78Y-111.26
X158.43Y-101.54
X158.51Y-103.0
X159.76Y-111.11
X163.4Y-106.42
X163.56Y-111.37
X164.57Y-97.63
X165.43Y-101.54
X165.57Y-90.13
X165.73Y-87.39
X166.05Y-114.41
X166.67Y-118.305
X166.7Y-102.46
X168.52Y-117.49
X168.62Y-103.24
X169.44Y-111.36
X169.87Y-101.56
X171.37Y-111.09
X171.42Y-87.71
X171.6Y-92.0
X172.83Y-90.13
X173.25Y-117.34
X173.28Y-118.47
X174.66Y-111.84
X175.02Y-119.05
X175.375Y-97.05
X175.41Y-103.76
T2
X135.15Y-93.7
X137.69Y-93.7
X140.23Y-93.7
T3
X144.98Y-93.45
X146.11Y-114.432
X146.11Y-116.972
X147.52Y-93.45
X148.65Y-114.432
X148.65Y-116.972
X150.06Y-93.45
X151.19Y-114.432
X151.19Y-116.972
X152.6Y-93.45
X153.73Y-114.432
X153.73Y-116.972
X155.14Y-93.45
X156.27Y-114.432
X156.27Y-116.972
X157.68Y-93.45
X158.81Y-114.432
X158.81Y-116.972
X160.22Y-93.45
X161.35Y-114.432
X161.35Y-116.972
X162.76Y-93.45
X163.89Y-114.432
X163.89Y-116.972
X165.3Y-93.45
X167.84Y-93.45
T4
X132.14Y-77.278
X132.5Y-70.278
X137.22Y-77.278
X137.5Y-70.278
X142.3Y-77.278
X142.5Y-70.278
X147.38Y-77.278
X147.5Y-70.278
X152.46Y-77.278
X152.5Y-70.278
X157.5Y-70.278
X157.54Y-77.278
X162.5Y-70.278
X162.62Y-77.278
X167.5Y-70.278
X167.7Y-77.278
X172.5Y-70.278
X172.78Y-77.278
X177.5Y-70.278
X177.86Y-77.278
T0
M30
